<svg xmlns="http://www.w3.org/2000/svg" version="1.1" xmlns:xlink="http://www.w3.org/1999/xlink" xmlns:svgjs="http://svgjs.com/svgjs" width="500" height="500" preserveAspectRatio="none" viewBox="0 0 500 500"><g mask="url(&quot;#SvgjsMask1752&quot;)" fill="none"><rect width="500" height="500" x="0" y="0" fill="url(#SvgjsLinearGradient1753)"></rect><g mask="url(&quot;#SvgjsMask1755&quot;)"><path d="M259 21L259 35L259 49L259 63L259 77M245 7L245 21L245 35L245 49L245 63L245 77M245 -7L245 7L259 21L273 35L273 49L273 63L273 77L273 91L273 105L287 119" stroke="url(#SvgjsLinearGradient1754)" stroke-width="2.33"></path><path d="M283.5 119 a3.5 3.5 0 1 0 7 0 a3.5 3.5 0 1 0 -7 0zM255.5 77 a3.5 3.5 0 1 0 7 0 a3.5 3.5 0 1 0 -7 0zM241.5 77 a3.5 3.5 0 1 0 7 0 a3.5 3.5 0 1 0 -7 0z" fill="url(#SvgjsLinearGradient1754)"></path><path d="M301 287L287 301L287 315L273 329L273 343L273 357M301 147L287 161L287 175L287 189L287 203M301 273L287 287L273 301L273 315M301 133L287 147M259 -7L259 7L273 21L287 35L287 49L287 63L287 77L287 91L287 105L301 119L301 133L301 147L301 161L301 175L301 189L301 203L301 217L301 231L301 245L301 259L301 273L301 287L301 301L301 315L301 329" stroke="url(#SvgjsLinearGradient1754)" stroke-width="2.33"></path><path d="M297.5 329 a3.5 3.5 0 1 0 7 0 a3.5 3.5 0 1 0 -7 0zM269.5 357 a3.5 3.5 0 1 0 7 0 a3.5 3.5 0 1 0 -7 0zM283.5 203 a3.5 3.5 0 1 0 7 0 a3.5 3.5 0 1 0 -7 0zM269.5 315 a3.5 3.5 0 1 0 7 0 a3.5 3.5 0 1 0 -7 0zM283.5 147 a3.5 3.5 0 1 0 7 0 a3.5 3.5 0 1 0 -7 0z" fill="url(#SvgjsLinearGradient1754)"></path><path d="M273 147L259 161L259 175L259 189M273 119L259 133L259 147L245 161L245 175M287 231L273 245M259 105L259 119L245 133L245 147L231 161L231 175M231 63L217 77L217 91L217 105L217 119L217 133L217 147L217 161M231 -7L231 7L231 21L231 35L231 49L231 63L231 77L245 91L259 105L273 119L273 133L273 147L273 161L273 175L273 189L273 203L287 217L287 231L287 245L287 259" stroke="url(#SvgjsLinearGradient1754)" stroke-width="2.33"></path><path d="M283.5 259 a3.5 3.5 0 1 0 7 0 a3.5 3.5 0 1 0 -7 0zM255.5 189 a3.5 3.5 0 1 0 7 0 a3.5 3.5 0 1 0 -7 0zM241.5 175 a3.5 3.5 0 1 0 7 0 a3.5 3.5 0 1 0 -7 0zM269.5 245 a3.5 3.5 0 1 0 7 0 a3.5 3.5 0 1 0 -7 0zM227.5 175 a3.5 3.5 0 1 0 7 0 a3.5 3.5 0 1 0 -7 0zM213.5 161 a3.5 3.5 0 1 0 7 0 a3.5 3.5 0 1 0 -7 0z" fill="url(#SvgjsLinearGradient1754)"></path><path d="M315 273L329 287L329 301M315 259L329 273L343 287M315 203L329 217L329 231M301 91L301 105M301 63L315 77L315 91M315 189L329 203L343 217M273 -7L273 7L287 21L301 35L301 49L301 63L301 77L301 91L315 105L315 119L315 133L315 147L315 161L315 175L315 189L315 203L315 217L315 231L315 245L315 259L315 273L315 287L315 301L315 315L315 329" stroke="url(#SvgjsLinearGradient1754)" stroke-width="2.33"></path><path d="M311.5 329 a3.5 3.5 0 1 0 7 0 a3.5 3.5 0 1 0 -7 0zM325.5 301 a3.5 3.5 0 1 0 7 0 a3.5 3.5 0 1 0 -7 0zM339.5 287 a3.5 3.5 0 1 0 7 0 a3.5 3.5 0 1 0 -7 0zM325.5 231 a3.5 3.5 0 1 0 7 0 a3.5 3.5 0 1 0 -7 0zM297.5 105 a3.5 3.5 0 1 0 7 0 a3.5 3.5 0 1 0 -7 0zM311.5 91 a3.5 3.5 0 1 0 7 0 a3.5 3.5 0 1 0 -7 0zM339.5 217 a3.5 3.5 0 1 0 7 0 a3.5 3.5 0 1 0 -7 0z" fill="url(#SvgjsLinearGradient1754)"></path><path d="M217 -7L217 7L217 21L217 35" stroke="url(#SvgjsLinearGradient1754)" stroke-width="2.33"></path><path d="M213.5 35 a3.5 3.5 0 1 0 7 0 a3.5 3.5 0 1 0 -7 0z" fill="url(#SvgjsLinearGradient1754)"></path><path d="M329 49L329 63L329 77M315 35L315 49L315 63M287 -7L287 7L301 21L315 35L329 49L343 63L343 77L343 91" stroke="url(#SvgjsLinearGradient1754)" stroke-width="2.33"></path><path d="M339.5 91 a3.5 3.5 0 1 0 7 0 a3.5 3.5 0 1 0 -7 0zM325.5 77 a3.5 3.5 0 1 0 7 0 a3.5 3.5 0 1 0 -7 0zM311.5 63 a3.5 3.5 0 1 0 7 0 a3.5 3.5 0 1 0 -7 0z" fill="url(#SvgjsLinearGradient1754)"></path><path d="M217 273L203 287L203 301L203 315L203 329L203 343M203 203L189 217L189 231L189 245M217 245L203 259L203 273M203 175L189 189L189 203M203 161L189 175M203 -7L203 7L203 21L203 35L203 49L203 63L203 77L203 91L203 105L203 119L203 133L203 147L203 161L203 175L203 189L203 203L203 217L203 231L217 245L217 259L217 273L217 287L217 301" stroke="url(#SvgjsLinearGradient1754)" stroke-width="2.33"></path><path d="M213.5 301 a3.5 3.5 0 1 0 7 0 a3.5 3.5 0 1 0 -7 0zM199.5 343 a3.5 3.5 0 1 0 7 0 a3.5 3.5 0 1 0 -7 0zM185.5 245 a3.5 3.5 0 1 0 7 0 a3.5 3.5 0 1 0 -7 0zM199.5 273 a3.5 3.5 0 1 0 7 0 a3.5 3.5 0 1 0 -7 0zM185.5 203 a3.5 3.5 0 1 0 7 0 a3.5 3.5 0 1 0 -7 0zM185.5 175 a3.5 3.5 0 1 0 7 0 a3.5 3.5 0 1 0 -7 0z" fill="url(#SvgjsLinearGradient1754)"></path><path d="M301 -7L301 7L315 21L329 35" stroke="url(#SvgjsLinearGradient1754)" stroke-width="2.33"></path><path d="M325.5 35 a3.5 3.5 0 1 0 7 0 a3.5 3.5 0 1 0 -7 0z" fill="url(#SvgjsLinearGradient1754)"></path><path d="M175 147L189 161M189 133L189 147M189 -7L189 7L189 21L189 35L189 49L189 63L189 77L189 91L189 105L189 119L189 133L175 147L175 161L175 175L175 189L175 203" stroke="url(#SvgjsLinearGradient1754)" stroke-width="2.33"></path><path d="M171.5 203 a3.5 3.5 0 1 0 7 0 a3.5 3.5 0 1 0 -7 0zM185.5 161 a3.5 3.5 0 1 0 7 0 a3.5 3.5 0 1 0 -7 0zM185.5 147 a3.5 3.5 0 1 0 7 0 a3.5 3.5 0 1 0 -7 0z" fill="url(#SvgjsLinearGradient1754)"></path><path d="M343 35L343 49M315 -7L315 7L329 21L343 35L357 49L357 63L357 77" stroke="url(#SvgjsLinearGradient1754)" stroke-width="2.33"></path><path d="M353.5 77 a3.5 3.5 0 1 0 7 0 a3.5 3.5 0 1 0 -7 0zM339.5 49 a3.5 3.5 0 1 0 7 0 a3.5 3.5 0 1 0 -7 0z" fill="url(#SvgjsLinearGradient1754)"></path><path d="M161 329L147 343L147 357L161 371M161 161L147 175L133 189L133 203L133 217L119 231L119 245L105 259L105 273M161 315L175 329L175 343L189 357L189 371M161 301L147 315L147 329L133 343L133 357L119 371M175 63L161 77M175 105L161 119L161 133M175 -7L175 7L175 21L175 35L175 49L175 63L175 77L175 91L175 105L175 119L175 133L161 147L161 161L161 175L161 189L161 203L161 217L161 231L161 245L147 259L147 273L161 287L161 301L161 315L161 329L161 343L175 357" stroke="url(#SvgjsLinearGradient1754)" stroke-width="2.33"></path><path d="M171.5 357 a3.5 3.5 0 1 0 7 0 a3.5 3.5 0 1 0 -7 0zM157.5 371 a3.5 3.5 0 1 0 7 0 a3.5 3.5 0 1 0 -7 0zM101.5 273 a3.5 3.5 0 1 0 7 0 a3.5 3.5 0 1 0 -7 0zM185.5 371 a3.5 3.5 0 1 0 7 0 a3.5 3.5 0 1 0 -7 0zM115.5 371 a3.5 3.5 0 1 0 7 0 a3.5 3.5 0 1 0 -7 0zM157.5 77 a3.5 3.5 0 1 0 7 0 a3.5 3.5 0 1 0 -7 0zM157.5 133 a3.5 3.5 0 1 0 7 0 a3.5 3.5 0 1 0 -7 0z" fill="url(#SvgjsLinearGradient1754)"></path><path d="M385 231L385 245L385 259L385 273L385 287L385 301M385 133L371 147L357 161M385 161L371 175L371 189L371 203L371 217M399 259L413 273L413 287L413 301L413 315L413 329M385 119L371 133M329 -7L329 7L343 21L357 35L371 49L371 63L371 77L385 91L385 105L385 119L385 133L385 147L385 161L385 175L385 189L385 203L385 217L385 231L399 245L399 259L399 273L399 287" stroke="url(#SvgjsLinearGradient1754)" stroke-width="2.33"></path><path d="M395.5 287 a3.5 3.5 0 1 0 7 0 a3.5 3.5 0 1 0 -7 0zM381.5 301 a3.5 3.5 0 1 0 7 0 a3.5 3.5 0 1 0 -7 0zM353.5 161 a3.5 3.5 0 1 0 7 0 a3.5 3.5 0 1 0 -7 0zM367.5 217 a3.5 3.5 0 1 0 7 0 a3.5 3.5 0 1 0 -7 0zM409.5 329 a3.5 3.5 0 1 0 7 0 a3.5 3.5 0 1 0 -7 0zM367.5 133 a3.5 3.5 0 1 0 7 0 a3.5 3.5 0 1 0 -7 0z" fill="url(#SvgjsLinearGradient1754)"></path><path d="M161 49L161 63M161 -7L161 7L161 21L161 35L161 49L147 63L147 77" stroke="url(#SvgjsLinearGradient1754)" stroke-width="2.33"></path><path d="M143.5 77 a3.5 3.5 0 1 0 7 0 a3.5 3.5 0 1 0 -7 0zM157.5 63 a3.5 3.5 0 1 0 7 0 a3.5 3.5 0 1 0 -7 0z" fill="url(#SvgjsLinearGradient1754)"></path><path d="M343 -7L343 7L357 21" stroke="url(#SvgjsLinearGradient1754)" stroke-width="2.33"></path><path d="M353.5 21 a3.5 3.5 0 1 0 7 0 a3.5 3.5 0 1 0 -7 0z" fill="url(#SvgjsLinearGradient1754)"></path><path d="M147 -7L147 7L147 21L147 35L147 49L133 63" stroke="url(#SvgjsLinearGradient1754)" stroke-width="2.33"></path><path d="M129.5 63 a3.5 3.5 0 1 0 7 0 a3.5 3.5 0 1 0 -7 0z" fill="url(#SvgjsLinearGradient1754)"></path><path d="M399 147L413 161L413 175L413 189L413 203M399 91L413 105L413 119L413 133L413 147M385 49L399 63L399 77M357 -7L357 7L371 21L371 35L385 49L385 63L385 77L399 91L399 105L399 119L399 133L399 147L399 161L399 175" stroke="url(#SvgjsLinearGradient1754)" stroke-width="2.33"></path><path d="M395.5 175 a3.5 3.5 0 1 0 7 0 a3.5 3.5 0 1 0 -7 0zM409.5 203 a3.5 3.5 0 1 0 7 0 a3.5 3.5 0 1 0 -7 0zM409.5 147 a3.5 3.5 0 1 0 7 0 a3.5 3.5 0 1 0 -7 0zM395.5 77 a3.5 3.5 0 1 0 7 0 a3.5 3.5 0 1 0 -7 0z" fill="url(#SvgjsLinearGradient1754)"></path><path d="M119 63L105 77M105 217L91 231L77 245M133 21L119 35L119 49M105 189L119 203L119 217M133 -7L133 7L133 21L133 35L133 49L119 63L119 77L119 91L119 105L119 119L119 133L119 147L119 161L119 175L105 189L105 203L105 217L105 231L91 245" stroke="url(#SvgjsLinearGradient1754)" stroke-width="2.33"></path><path d="M87.5 245 a3.5 3.5 0 1 0 7 0 a3.5 3.5 0 1 0 -7 0zM101.5 77 a3.5 3.5 0 1 0 7 0 a3.5 3.5 0 1 0 -7 0zM73.5 245 a3.5 3.5 0 1 0 7 0 a3.5 3.5 0 1 0 -7 0zM115.5 49 a3.5 3.5 0 1 0 7 0 a3.5 3.5 0 1 0 -7 0zM115.5 217 a3.5 3.5 0 1 0 7 0 a3.5 3.5 0 1 0 -7 0z" fill="url(#SvgjsLinearGradient1754)"></path></g></g><defs><mask id="SvgjsMask1752"><rect width="500" height="500" fill="#ffffff"></rect></mask><linearGradient x1="0%" y1="0%" x2="100%" y2="100%" gradientUnits="userSpaceOnUse" id="SvgjsLinearGradient1753"><stop stop-color="#0e2a47" offset="0"></stop><stop stop-color="#00459e" offset="1"></stop></linearGradient><linearGradient x1="26.25" y1="-26.267500000000002" x2="473.75" y2="421.2675" gradientUnits="userSpaceOnUse" id="SvgjsLinearGradient1754"><stop stop-color="#3a7cc3" offset="0"></stop><stop stop-color="#dd1133" offset="1"></stop></linearGradient><mask id="SvgjsMask1755"><rect width="500" height="500" fill="white"></rect><path d="M285.25 119 a1.75 1.75 0 1 0 3.5 0 a1.75 1.75 0 1 0 -3.5 0zM257.25 77 a1.75 1.75 0 1 0 3.5 0 a1.75 1.75 0 1 0 -3.5 0zM243.25 77 a1.75 1.75 0 1 0 3.5 0 a1.75 1.75 0 1 0 -3.5 0z" fill="black"></path><path d="M299.25 329 a1.75 1.75 0 1 0 3.5 0 a1.75 1.75 0 1 0 -3.5 0zM271.25 357 a1.75 1.75 0 1 0 3.5 0 a1.75 1.75 0 1 0 -3.5 0zM285.25 203 a1.75 1.75 0 1 0 3.5 0 a1.75 1.75 0 1 0 -3.5 0zM271.25 315 a1.75 1.75 0 1 0 3.5 0 a1.75 1.75 0 1 0 -3.5 0zM285.25 147 a1.75 1.75 0 1 0 3.5 0 a1.75 1.75 0 1 0 -3.5 0z" fill="black"></path><path d="M285.25 259 a1.75 1.75 0 1 0 3.5 0 a1.75 1.75 0 1 0 -3.5 0zM257.25 189 a1.75 1.75 0 1 0 3.5 0 a1.75 1.75 0 1 0 -3.5 0zM243.25 175 a1.75 1.75 0 1 0 3.5 0 a1.75 1.75 0 1 0 -3.5 0zM271.25 245 a1.75 1.75 0 1 0 3.5 0 a1.75 1.75 0 1 0 -3.5 0zM229.25 175 a1.75 1.75 0 1 0 3.5 0 a1.75 1.75 0 1 0 -3.5 0zM215.25 161 a1.75 1.75 0 1 0 3.5 0 a1.75 1.75 0 1 0 -3.5 0z" fill="black"></path><path d="M313.25 329 a1.75 1.75 0 1 0 3.5 0 a1.75 1.75 0 1 0 -3.5 0zM327.25 301 a1.75 1.75 0 1 0 3.5 0 a1.75 1.75 0 1 0 -3.5 0zM341.25 287 a1.75 1.75 0 1 0 3.5 0 a1.75 1.75 0 1 0 -3.5 0zM327.25 231 a1.75 1.75 0 1 0 3.5 0 a1.75 1.75 0 1 0 -3.5 0zM299.25 105 a1.75 1.75 0 1 0 3.5 0 a1.75 1.75 0 1 0 -3.5 0zM313.25 91 a1.75 1.75 0 1 0 3.5 0 a1.75 1.75 0 1 0 -3.5 0zM341.25 217 a1.75 1.75 0 1 0 3.5 0 a1.75 1.75 0 1 0 -3.5 0z" fill="black"></path><path d="M215.25 35 a1.75 1.75 0 1 0 3.5 0 a1.75 1.75 0 1 0 -3.5 0z" fill="black"></path><path d="M341.25 91 a1.75 1.75 0 1 0 3.5 0 a1.75 1.75 0 1 0 -3.5 0zM327.25 77 a1.75 1.75 0 1 0 3.5 0 a1.75 1.75 0 1 0 -3.5 0zM313.25 63 a1.75 1.75 0 1 0 3.5 0 a1.75 1.75 0 1 0 -3.5 0z" fill="black"></path><path d="M215.25 301 a1.75 1.75 0 1 0 3.5 0 a1.75 1.75 0 1 0 -3.5 0zM201.25 343 a1.75 1.75 0 1 0 3.5 0 a1.75 1.75 0 1 0 -3.5 0zM187.25 245 a1.75 1.75 0 1 0 3.5 0 a1.75 1.75 0 1 0 -3.5 0zM201.25 273 a1.75 1.75 0 1 0 3.5 0 a1.75 1.75 0 1 0 -3.5 0zM187.25 203 a1.75 1.75 0 1 0 3.5 0 a1.75 1.75 0 1 0 -3.5 0zM187.25 175 a1.75 1.75 0 1 0 3.5 0 a1.75 1.75 0 1 0 -3.5 0z" fill="black"></path><path d="M327.25 35 a1.75 1.75 0 1 0 3.5 0 a1.75 1.75 0 1 0 -3.5 0z" fill="black"></path><path d="M173.25 203 a1.75 1.75 0 1 0 3.5 0 a1.75 1.75 0 1 0 -3.5 0zM187.25 161 a1.75 1.75 0 1 0 3.5 0 a1.75 1.75 0 1 0 -3.5 0zM187.25 147 a1.75 1.75 0 1 0 3.5 0 a1.75 1.75 0 1 0 -3.5 0z" fill="black"></path><path d="M355.25 77 a1.75 1.75 0 1 0 3.5 0 a1.75 1.75 0 1 0 -3.5 0zM341.25 49 a1.75 1.75 0 1 0 3.5 0 a1.75 1.75 0 1 0 -3.5 0z" fill="black"></path><path d="M173.25 357 a1.75 1.75 0 1 0 3.5 0 a1.75 1.75 0 1 0 -3.5 0zM159.25 371 a1.75 1.75 0 1 0 3.5 0 a1.75 1.75 0 1 0 -3.5 0zM103.25 273 a1.75 1.75 0 1 0 3.5 0 a1.75 1.75 0 1 0 -3.5 0zM187.25 371 a1.75 1.75 0 1 0 3.5 0 a1.75 1.75 0 1 0 -3.5 0zM117.25 371 a1.75 1.75 0 1 0 3.5 0 a1.75 1.75 0 1 0 -3.5 0zM159.25 77 a1.75 1.75 0 1 0 3.5 0 a1.75 1.75 0 1 0 -3.5 0zM159.25 133 a1.75 1.75 0 1 0 3.5 0 a1.75 1.75 0 1 0 -3.5 0z" fill="black"></path><path d="M397.25 287 a1.75 1.75 0 1 0 3.5 0 a1.75 1.75 0 1 0 -3.5 0zM383.25 301 a1.75 1.75 0 1 0 3.5 0 a1.75 1.75 0 1 0 -3.5 0zM355.25 161 a1.75 1.75 0 1 0 3.5 0 a1.75 1.75 0 1 0 -3.5 0zM369.25 217 a1.75 1.75 0 1 0 3.5 0 a1.75 1.75 0 1 0 -3.5 0zM411.25 329 a1.75 1.75 0 1 0 3.5 0 a1.75 1.75 0 1 0 -3.5 0zM369.25 133 a1.75 1.75 0 1 0 3.5 0 a1.75 1.75 0 1 0 -3.5 0z" fill="black"></path><path d="M145.25 77 a1.75 1.75 0 1 0 3.5 0 a1.75 1.75 0 1 0 -3.5 0zM159.25 63 a1.75 1.75 0 1 0 3.5 0 a1.75 1.75 0 1 0 -3.5 0z" fill="black"></path><path d="M355.25 21 a1.75 1.75 0 1 0 3.5 0 a1.75 1.75 0 1 0 -3.5 0z" fill="black"></path><path d="M131.25 63 a1.75 1.75 0 1 0 3.5 0 a1.75 1.75 0 1 0 -3.5 0z" fill="black"></path><path d="M397.25 175 a1.75 1.75 0 1 0 3.5 0 a1.75 1.75 0 1 0 -3.5 0zM411.25 203 a1.75 1.75 0 1 0 3.5 0 a1.75 1.75 0 1 0 -3.5 0zM411.25 147 a1.75 1.75 0 1 0 3.5 0 a1.75 1.75 0 1 0 -3.5 0zM397.25 77 a1.75 1.75 0 1 0 3.5 0 a1.75 1.75 0 1 0 -3.5 0z" fill="black"></path><path d="M89.25 245 a1.75 1.75 0 1 0 3.5 0 a1.75 1.75 0 1 0 -3.5 0zM103.25 77 a1.75 1.75 0 1 0 3.5 0 a1.75 1.75 0 1 0 -3.5 0zM75.25 245 a1.75 1.75 0 1 0 3.5 0 a1.75 1.75 0 1 0 -3.5 0zM117.25 49 a1.75 1.75 0 1 0 3.5 0 a1.75 1.75 0 1 0 -3.5 0zM117.25 217 a1.75 1.75 0 1 0 3.5 0 a1.75 1.75 0 1 0 -3.5 0z" fill="black"></path></mask></defs></svg>