<?xml version="1.0" standalone="no"?>
<!DOCTYPE svg PUBLIC "-//W3C//DTD SVG 20010904//EN"
 "http://www.w3.org/TR/2001/REC-SVG-20010904/DTD/svg10.dtd">
<svg version="1.0" xmlns="http://www.w3.org/2000/svg"
 width="499.000000pt" height="499.000000pt" viewBox="0 0 499.000000 499.000000"
 preserveAspectRatio="xMidYMid meet">
<metadata>
Created by potrace 1.14, written by Peter Selinger 2001-2017
</metadata>
<g transform="translate(0.000000,499.000000) scale(0.100000,-0.100000)"
fill="#000000" stroke="none">
<path d="M2415 4138 c-16 -6 -37 -16 -45 -23 -8 -7 -46 -18 -85 -25 -118 -20
-279 -65 -380 -107 -109 -46 -105 -42 -105 -89 0 -45 -25 -105 -60 -142 -12
-12 -18 -22 -15 -22 3 0 2 -8 -3 -17 -7 -12 -5 -24 4 -39 8 -11 12 -29 8 -38
-9 -22 -24 -10 -24 20 0 15 -4 23 -10 19 -15 -9 -7 -51 14 -73 9 -11 16 -26
15 -34 -2 -7 3 -24 10 -37 14 -25 12 -76 -9 -191 -14 -77 -5 -324 14 -415 18
-85 17 -100 -7 -111 -12 -5 -21 -16 -19 -24 9 -38 12 -81 12 -143 0 -38 6 -81
14 -95 7 -15 16 -49 20 -77 3 -27 15 -62 26 -77 11 -15 20 -29 20 -31 0 -3
-23 -15 -52 -27 -61 -26 -191 -140 -213 -186 -8 -18 -15 -43 -15 -57 0 -35
-43 -116 -80 -152 -17 -16 -42 -49 -56 -73 -25 -42 -25 -47 -19 -155 8 -135 8
-135 35 -221 20 -64 21 -97 4 -151 -12 -35 -23 -106 -24 -142 0 -23 -7 -48
-15 -57 -18 -17 -19 -48 -3 -64 13 -13 18 -11 -92 -43 -41 -12 -91 -30 -112
-40 -20 -10 -81 -33 -135 -50 -151 -48 -260 -99 -359 -167 -50 -34 -105 -67
-123 -73 -33 -12 -121 -118 -165 -201 -13 -24 -38 -66 -55 -94 -23 -36 -34
-68 -38 -110 -3 -32 -10 -68 -16 -78 -9 -19 -77 -213 -77 -222 0 -2 1078 -4
2395 -4 l2395 0 0 1075 c0 591 -1 1075 -3 1075 -31 0 -163 -49 -195 -73 -37
-28 -42 -36 -39 -66 2 -26 -2 -36 -20 -48 -13 -8 -23 -21 -23 -29 0 -7 -7 -17
-15 -21 -8 -5 -71 -64 -140 -132 -96 -95 -130 -122 -145 -118 -11 3 -20 1 -20
-3 0 -5 -19 -11 -42 -15 -24 -4 -56 -14 -72 -22 -17 -9 -42 -19 -56 -23 -27
-8 -27 -7 -43 68 -15 70 -16 77 -1 93 15 17 15 24 1 87 -9 38 -34 107 -56 153
-35 74 -52 95 -135 173 -117 109 -206 151 -351 166 -104 11 -262 29 -320 37
-22 3 -44 9 -50 14 -5 5 -17 9 -27 9 -10 0 -18 5 -18 10 0 14 38 12 42 -2 2
-6 31 15 64 48 43 43 75 91 117 171 66 127 71 167 36 271 -24 71 -56 102 -104
102 l-33 0 1 178 c0 237 -8 305 -45 368 -11 19 -18 41 -14 49 3 8 1 17 -5 21
-5 3 -7 14 -4 24 3 10 1 21 -5 25 -6 3 -8 10 -5 15 3 4 -2 13 -10 20 -8 7 -15
22 -15 34 -1 11 -10 37 -20 56 -40 73 -49 98 -60 166 -15 95 -24 111 -67 130
-78 33 -103 37 -313 45 -118 5 -242 11 -275 14 -33 2 -73 -1 -90 -7z m705
-114 c0 -14 5 -34 10 -45 6 -10 14 -39 19 -64 7 -36 6 -45 -5 -45 -8 0 -14 10
-14 23 0 19 -19 63 -20 44 0 -4 -22 5 -50 20 -27 15 -50 29 -50 32 1 11 75 59
93 60 12 1 17 -7 17 -25z m-1270 -125 c6 -11 9 -25 6 -32 -2 -7 -5 -5 -5 4 -1
9 -8 19 -16 23 -8 3 -15 10 -15 16 0 17 19 11 30 -11z m1440 -1433 c0 -3 -4
-8 -10 -11 -5 -3 -10 -1 -10 4 0 6 5 11 10 11 6 0 10 -2 10 -4z m-72 -74 c2
-7 -3 -12 -12 -12 -9 0 -16 7 -16 16 0 17 22 14 28 -4z m1747 -882 c3 -5 1
-10 -4 -10 -6 0 -11 5 -11 10 0 6 2 10 4 10 3 0 8 -4 11 -10z m-39 -27 c1 -14
-3 -20 -12 -16 -18 7 -19 46 -1 41 6 -3 12 -14 13 -25z m-68 -61 c2 -12 -1
-22 -7 -22 -6 0 -11 4 -11 9 0 5 -3 17 -7 27 -4 12 -2 15 8 12 8 -2 15 -14 17
-26z m-44 -8 c4 -9 4 -19 1 -22 -6 -6 -35 18 -35 29 0 16 28 10 34 -7z m144
-57 c5 -37 -15 -34 -20 3 -3 19 -1 29 6 27 6 -2 12 -16 14 -30z m-58 -97 c0
-5 -4 -10 -9 -10 -6 0 -13 5 -16 10 -3 6 1 10 9 10 9 0 16 -4 16 -10z"/>
</g>
</svg>
