<?xml version="1.0" standalone="no"?>
<!DOCTYPE svg PUBLIC "-//W3C//DTD SVG 20010904//EN"
 "http://www.w3.org/TR/2001/REC-SVG-20010904/DTD/svg10.dtd">
<svg version="1.0" xmlns="http://www.w3.org/2000/svg"
 width="700.000000pt" height="700.000000pt" viewBox="0 0 700.000000 700.000000"
 preserveAspectRatio="xMidYMid meet">
<metadata>
Created by potrace 1.11, written by Peter Selinger 2001-2013
</metadata>
<g transform="translate(0.000000,700.000000) scale(0.100000,-0.100000)"
fill="#000000" stroke="none">
<path d="M3407 6884 c-1 -1 -54 -5 -117 -8 -63 -4 -126 -8 -140 -10 -14 -2
-52 -7 -85 -11 -32 -4 -68 -9 -79 -11 -11 -2 -38 -6 -61 -10 -85 -13 -138 -24
-272 -58 -102 -26 -320 -95 -377 -120 -17 -7 -51 -22 -76 -32 -113 -46 -352
-166 -435 -218 -189 -120 -329 -221 -482 -349 -61 -51 -287 -278 -350 -353
-294 -345 -510 -729 -649 -1154 -49 -148 -101 -358 -118 -475 -4 -23 -8 -51
-11 -64 -2 -13 -7 -49 -11 -80 -3 -31 -8 -64 -10 -74 -6 -33 -16 -251 -17
-352 0 -97 11 -327 17 -362 2 -10 7 -45 11 -78 4 -32 9 -68 11 -79 2 -11 6
-38 10 -61 47 -323 197 -743 385 -1085 45 -81 211 -334 256 -389 178 -220 351
-402 488 -516 33 -28 71 -60 85 -72 30 -26 259 -193 264 -193 2 0 47 -27 101
-61 282 -177 771 -372 1041 -415 21 -3 41 -7 44 -9 3 -2 26 -6 50 -10 25 -3
61 -10 80 -15 80 -20 376 -43 545 -43 104 1 312 11 355 18 14 2 46 6 72 9 86
11 253 40 333 60 6 2 24 6 40 10 216 51 473 145 693 254 143 71 285 151 290
164 2 5 8 8 14 8 6 0 54 30 107 67 485 336 874 786 1130 1306 65 133 158 364
186 462 27 94 94 349 93 355 -1 3 2 23 7 45 12 62 14 73 25 159 6 45 13 92 15
105 7 39 18 268 18 366 0 97 -12 335 -17 344 -2 3 -7 35 -10 71 -10 97 -34
232 -62 350 -14 58 -27 110 -28 115 -28 119 -107 340 -179 500 -63 141 -239
461 -266 485 -3 3 -21 28 -40 55 -110 161 -233 307 -391 465 -123 123 -140
139 -250 230 -373 310 -863 554 -1330 665 -70 17 -203 44 -238 49 -24 3 -46 8
-50 10 -4 2 -43 7 -87 11 -44 4 -82 9 -85 10 -12 7 -436 25 -443 19z"/>
</g>
</svg>
